<?xml version="1.0" encoding="UTF-8"?>
<!DOCTYPE svg PUBLIC "-//W3C//DTD SVG 1.1//EN" "http://www.w3.org/Graphics/SVG/1.1/DTD/svg11.dtd">
<svg xmlns="http://www.w3.org/2000/svg" version="1.1" width="1080px" height="1157px" style="shape-rendering:geometricPrecision; text-rendering:geometricPrecision; image-rendering:optimizeQuality; fill-rule:evenodd; clip-rule:evenodd" xmlns:xlink="http://www.w3.org/1999/xlink">
<g><path style="opacity:1" fill="#fefefe" d="M -0.5,-0.5 C 359.5,-0.5 719.5,-0.5 1079.5,-0.5C 1079.5,385.167 1079.5,770.833 1079.5,1156.5C 719.5,1156.5 359.5,1156.5 -0.5,1156.5C -0.5,770.833 -0.5,385.167 -0.5,-0.5 Z"/></g>
<g><path style="opacity:1" fill="#fd7a76" d="M 535.5,193.5 C 522.151,193.882 508.818,194.549 495.5,195.5C 508.741,192.615 522.075,191.948 535.5,193.5 Z"/></g>
<g><path style="opacity:1" fill="#feaba4" d="M 535.5,193.5 C 547.171,193.333 558.838,193.5 570.5,194C 574.133,194.149 577.466,194.982 580.5,196.5C 565.381,195.106 550.381,194.106 535.5,193.5 Z"/></g>
<g><path style="opacity:1" fill="#fd3c38" d="M 535.5,193.5 C 550.381,194.106 565.381,195.106 580.5,196.5C 591.807,198.493 602.807,201.493 613.5,205.5C 615.102,207.074 617.102,207.741 619.5,207.5C 631.804,212.82 643.804,218.987 655.5,226C 689.323,250.321 716.656,280.488 737.5,316.5C 737.427,318.027 738.094,319.027 739.5,319.5C 751.773,339.984 760.107,361.984 764.5,385.5C 758.825,392.84 753.159,400.173 747.5,407.5C 746.85,405.565 746.517,403.565 746.5,401.5C 746.706,398.505 746.04,395.838 744.5,393.5C 732.965,335.089 703.632,287.755 656.5,251.5C 640.145,241.157 623.145,232.157 605.5,224.5C 597.883,223.065 590.549,221.065 583.5,218.5C 581.095,217.232 578.428,216.565 575.5,216.5C 567.53,215.239 559.53,214.239 551.5,213.5C 545.893,212.117 540.059,211.45 534,211.5C 523.658,211.871 513.491,212.537 503.5,213.5C 497.886,213.073 492.553,213.74 487.5,215.5C 479.105,216.444 471.105,218.444 463.5,221.5C 460.505,221.294 457.838,221.96 455.5,223.5C 387.717,247.283 342.384,293.283 319.5,361.5C 318.197,359.858 316.864,358.191 315.5,356.5C 315.613,353.951 314.946,351.618 313.5,349.5C 310.764,346.764 308.098,344.098 305.5,341.5C 308.829,330.83 313.496,320.83 319.5,311.5C 321.822,310.198 323.155,308.198 323.5,305.5C 323.709,304.078 324.209,302.745 325,301.5C 331.374,292.729 338.207,284.395 345.5,276.5C 348.493,275.007 350.493,272.674 351.5,269.5C 361.003,258.831 371.337,248.998 382.5,240C 389.388,234.725 396.721,230.225 404.5,226.5C 406.848,226.408 408.514,225.408 409.5,223.5C 424.005,215.047 439.338,208.714 455.5,204.5C 458.428,204.435 461.095,203.768 463.5,202.5C 473.788,198.907 484.454,196.574 495.5,195.5C 508.818,194.549 522.151,193.882 535.5,193.5 Z"/></g>
<g><path style="opacity:1" fill="#f5807c" d="M 463.5,202.5 C 461.095,203.768 458.428,204.435 455.5,204.5C 457.838,202.96 460.505,202.294 463.5,202.5 Z"/></g>
<g><path style="opacity:1" fill="#fdaca8" d="M 613.5,205.5 C 615.898,205.259 617.898,205.926 619.5,207.5C 617.102,207.741 615.102,207.074 613.5,205.5 Z"/></g>
<g><path style="opacity:1" fill="#ffc3bc" d="M 551.5,213.5 C 535.5,213.5 519.5,213.5 503.5,213.5C 513.491,212.537 523.658,211.871 534,211.5C 540.059,211.45 545.893,212.117 551.5,213.5 Z"/></g>
<g><path style="opacity:1" fill="#fefefd" d="M 503.5,213.5 C 519.5,213.5 535.5,213.5 551.5,213.5C 559.53,214.239 567.53,215.239 575.5,216.5C 577.838,218.04 580.505,218.706 583.5,218.5C 590.549,221.065 597.883,223.065 605.5,224.5C 623.145,232.157 640.145,241.157 656.5,251.5C 703.632,287.755 732.965,335.089 744.5,393.5C 744.565,396.428 745.232,399.095 746.5,401.5C 746.517,403.565 746.85,405.565 747.5,407.5C 748.922,428.842 748.756,450.175 747,471.5C 731.726,543.276 691.892,596.443 627.5,631C 624.287,631.606 621.287,632.773 618.5,634.5C 615.454,625.345 611.454,616.679 606.5,608.5C 606.771,606.62 606.104,605.287 604.5,604.5C 600.241,597.395 595.741,590.395 591,583.5C 590.759,580.711 590.092,578.044 589,575.5C 588.333,571.833 588.333,568.167 589,564.5C 591.622,557.59 593.956,550.59 596,543.5C 609.199,523.301 620.199,501.967 629,479.5C 635.557,454.687 636.223,429.687 631,404.5C 624.043,386.045 611.543,373.045 593.5,365.5C 592.791,364.596 591.791,364.263 590.5,364.5C 590.324,361.273 589.657,358.273 588.5,355.5C 587.75,350.418 585.917,345.751 583,341.5C 579.113,337.789 575.279,333.956 571.5,330C 563.884,323.677 555.384,318.844 546,315.5C 544.588,314.314 543.421,312.981 542.5,311.5C 542.611,310.883 542.944,310.383 543.5,310C 540.228,309.563 538.561,307.73 538.5,304.5C 536.097,304.552 533.764,304.219 531.5,303.5C 525.063,299.615 518.396,296.282 511.5,293.5C 509.898,291.926 507.898,291.259 505.5,291.5C 498.113,290.936 490.779,289.936 483.5,288.5C 481.929,283.843 479.263,280.01 475.5,277C 468.701,273.265 461.701,270.098 454.5,267.5C 450.797,265.945 446.797,265.278 442.5,265.5C 439.314,265.502 436.314,265.835 433.5,266.5C 430.557,266.647 427.724,267.313 425,268.5C 420.76,270.899 416.926,273.899 413.5,277.5C 411.086,278.911 409.419,280.911 408.5,283.5C 406.178,284.802 404.845,286.802 404.5,289.5C 403.4,291.277 402.566,293.277 402,295.5C 401.177,303.677 401.344,311.677 402.5,319.5C 405.351,336.458 408.018,353.458 410.5,370.5C 410.872,380.338 411.539,390.005 412.5,399.5C 414.297,415.438 415.297,431.438 415.5,447.5C 412.951,447.387 410.618,448.054 408.5,449.5C 404.863,451.48 401.863,454.146 399.5,457.5C 393.951,461.408 390.285,466.741 388.5,473.5C 387.883,473.611 387.383,473.944 387,474.5C 386.184,479.684 386.35,484.684 387.5,489.5C 387.338,491.527 387.505,493.527 388,495.5C 394.83,509.161 403.163,521.827 413,533.5C 426.784,557.937 440.951,582.103 455.5,606C 447.613,616.041 439.613,625.874 431.5,635.5C 400.492,620.996 374.326,600.329 353,573.5C 314.395,524.944 299.729,469.611 309,407.5C 310.333,399.5 311.667,391.5 313,383.5C 315.277,376.172 317.444,368.839 319.5,361.5C 342.384,293.283 387.717,247.283 455.5,223.5C 458.428,223.435 461.095,222.768 463.5,221.5C 465.547,221.489 467.547,221.156 469.5,220.5C 472.697,222.469 476.03,222.803 479.5,221.5C 478.167,220.833 476.833,220.167 475.5,219.5C 476.167,219.167 476.833,218.833 477.5,218.5C 480.132,219.44 482.798,219.607 485.5,219C 485.167,218.667 484.833,218.333 484.5,218C 487.522,217.902 490.189,217.068 492.5,215.5C 496.167,214.833 499.833,214.167 503.5,213.5 Z"/></g>
<g><path style="opacity:1" fill="#fc7d79" d="M 503.5,213.5 C 499.833,214.167 496.167,214.833 492.5,215.5C 490.833,215.5 489.167,215.5 487.5,215.5C 492.553,213.74 497.886,213.073 503.5,213.5 Z"/></g>
<g><path style="opacity:1" fill="#fd9c9a" d="M 575.5,216.5 C 578.428,216.565 581.095,217.232 583.5,218.5C 580.505,218.706 577.838,218.04 575.5,216.5 Z"/></g>
<g><path style="opacity:1" fill="#ffe4e3" d="M 487.5,215.5 C 489.167,215.5 490.833,215.5 492.5,215.5C 490.189,217.068 487.522,217.902 484.5,218C 484.833,218.333 485.167,218.667 485.5,219C 482.798,219.607 480.132,219.44 477.5,218.5C 476.833,218.833 476.167,219.167 475.5,219.5C 476.833,220.167 478.167,220.833 479.5,221.5C 476.03,222.803 472.697,222.469 469.5,220.5C 467.547,221.156 465.547,221.489 463.5,221.5C 471.105,218.444 479.105,216.444 487.5,215.5 Z"/></g>
<g><path style="opacity:1" fill="#feb2ac" d="M 463.5,221.5 C 461.095,222.768 458.428,223.435 455.5,223.5C 457.838,221.96 460.505,221.294 463.5,221.5 Z"/></g>
<g><path style="opacity:1" fill="#fc7c76" d="M 409.5,223.5 C 408.514,225.408 406.848,226.408 404.5,226.5C 405.659,224.75 407.326,223.75 409.5,223.5 Z"/></g>
<g><path style="opacity:1" fill="#ffccc6" d="M 433.5,266.5 C 436.314,265.835 439.314,265.502 442.5,265.5C 446.797,265.278 450.797,265.945 454.5,267.5C 447.535,266.659 440.535,266.326 433.5,266.5 Z"/></g>
<g><path style="opacity:1" fill="#f97873" d="M 351.5,269.5 C 350.493,272.674 348.493,275.007 345.5,276.5C 346.81,273.527 348.81,271.193 351.5,269.5 Z"/></g>
<g><path style="opacity:1" fill="#fa7d78" d="M 413.5,277.5 C 412.927,280.407 411.261,282.407 408.5,283.5C 409.419,280.911 411.086,278.911 413.5,277.5 Z"/></g>
<g><path style="opacity:1" fill="#feaead" d="M 505.5,291.5 C 507.898,291.259 509.898,291.926 511.5,293.5C 509.102,293.741 507.102,293.074 505.5,291.5 Z"/></g>
<g><path style="opacity:1" fill="#fb5c59" d="M 404.5,289.5 C 402.79,299.411 402.123,309.411 402.5,319.5C 401.344,311.677 401.177,303.677 402,295.5C 402.566,293.277 403.4,291.277 404.5,289.5 Z"/></g>
<g><path style="opacity:1" fill="#fa958e" d="M 323.5,305.5 C 323.155,308.198 321.822,310.198 319.5,311.5C 320.34,309.147 321.674,307.147 323.5,305.5 Z"/></g>
<g><path style="opacity:1" fill="#ffcdca" d="M 531.5,303.5 C 533.764,304.219 536.097,304.552 538.5,304.5C 538.561,307.73 540.228,309.563 543.5,310C 542.944,310.383 542.611,310.883 542.5,311.5C 538.788,308.772 535.122,306.106 531.5,303.5 Z"/></g>
<g><path style="opacity:1" fill="#fc9493" d="M 737.5,316.5 C 738.906,316.973 739.573,317.973 739.5,319.5C 738.094,319.027 737.427,318.027 737.5,316.5 Z"/></g>
<g><path style="opacity:1" fill="#fd5b21" d="M 305.5,341.5 C 308.098,344.098 310.764,346.764 313.5,349.5C 314.946,351.618 315.613,353.951 315.5,356.5C 312.802,353.71 310.302,350.71 308,347.5C 306.878,345.593 306.045,343.593 305.5,341.5 Z"/></g>
<g><path style="opacity:1" fill="#f98884" d="M 588.5,355.5 C 589.657,358.273 590.324,361.273 590.5,364.5C 591.791,364.263 592.791,364.596 593.5,365.5C 592.167,365.5 590.833,365.5 589.5,365.5C 588.949,362.193 588.616,358.86 588.5,355.5 Z"/></g>
<g><path style="opacity:1" fill="#feb0a9" d="M 410.5,370.5 C 412.239,379.941 412.905,389.607 412.5,399.5C 411.539,390.005 410.872,380.338 410.5,370.5 Z"/></g>
<g><path style="opacity:1" fill="#fd9d97" d="M 744.5,393.5 C 746.04,395.838 746.706,398.505 746.5,401.5C 745.232,399.095 744.565,396.428 744.5,393.5 Z"/></g>
<g><path style="opacity:1" fill="#fd3d39" d="M 433.5,266.5 C 440.535,266.326 447.535,266.659 454.5,267.5C 461.701,270.098 468.701,273.265 475.5,277C 479.263,280.01 481.929,283.843 483.5,288.5C 490.779,289.936 498.113,290.936 505.5,291.5C 507.102,293.074 509.102,293.741 511.5,293.5C 518.396,296.282 525.063,299.615 531.5,303.5C 535.122,306.106 538.788,308.772 542.5,311.5C 543.421,312.981 544.588,314.314 546,315.5C 555.384,318.844 563.884,323.677 571.5,330C 575.279,333.956 579.113,337.789 583,341.5C 585.917,345.751 587.75,350.418 588.5,355.5C 588.616,358.86 588.949,362.193 589.5,365.5C 590.833,365.5 592.167,365.5 593.5,365.5C 611.543,373.045 624.043,386.045 631,404.5C 636.223,429.687 635.557,454.687 629,479.5C 620.199,501.967 609.199,523.301 596,543.5C 593.956,550.59 591.622,557.59 589,564.5C 588.333,568.167 588.333,571.833 589,575.5C 590.092,578.044 590.759,580.711 591,583.5C 595.741,590.395 600.241,597.395 604.5,604.5C 604.5,606.167 604.5,607.833 604.5,609.5C 603.448,609.351 602.448,609.517 601.5,610C 602.252,610.671 602.586,611.504 602.5,612.5C 600.807,615.184 599.14,617.851 597.5,620.5C 595.5,620.5 594.5,621.5 594.5,623.5C 593.25,623.423 592.417,622.756 592,621.5C 590.512,615.009 588.512,608.676 586,602.5C 584.625,600.624 583.458,598.624 582.5,596.5C 581.893,596.624 581.56,596.957 581.5,597.5C 577.097,599.299 572.43,599.966 567.5,599.5C 561.862,596.297 556.528,592.63 551.5,588.5C 547.003,586.667 542.336,585.667 537.5,585.5C 538.999,600.795 539.999,616.128 540.5,631.5C 538.692,631.491 537.025,631.991 535.5,633C 532.536,635.81 529.202,637.976 525.5,639.5C 524.066,637.51 522.232,635.843 520,634.5C 517.667,630.676 515.167,627.01 512.5,623.5C 512.584,614.826 512.917,606.159 513.5,597.5C 513.167,594.167 512.833,590.833 512.5,587.5C 511.893,587.624 511.56,587.957 511.5,588.5C 510.127,588.343 508.793,588.51 507.5,589C 502.608,592.394 497.275,594.894 491.5,596.5C 490.986,594.132 489.82,592.132 488,590.5C 487.506,588.866 487.34,587.199 487.5,585.5C 489.954,584.379 492.621,583.546 495.5,583C 499.135,580.207 503.135,578.04 507.5,576.5C 510.064,576.021 512.564,575.355 515,574.5C 515.5,560.171 515.667,545.837 515.5,531.5C 515.242,518.137 515.575,504.804 516.5,491.5C 519.553,486.527 517.887,483.86 511.5,483.5C 508.463,478.802 504.797,474.802 500.5,471.5C 500.5,457.833 500.5,444.167 500.5,430.5C 498.901,430.232 497.568,430.566 496.5,431.5C 490.766,434.699 484.766,437.365 478.5,439.5C 473.476,440.943 468.809,442.943 464.5,445.5C 452.754,451.056 441.087,456.889 429.5,463C 422.619,464.777 416.285,467.611 410.5,471.5C 405.751,467.743 402.084,463.077 399.5,457.5C 401.863,454.146 404.863,451.48 408.5,449.5C 410.618,448.054 412.951,447.387 415.5,447.5C 415.297,431.438 414.297,415.438 412.5,399.5C 412.905,389.607 412.239,379.941 410.5,370.5C 408.018,353.458 405.351,336.458 402.5,319.5C 402.123,309.411 402.79,299.411 404.5,289.5C 404.845,286.802 406.178,284.802 408.5,283.5C 411.261,282.407 412.927,280.407 413.5,277.5C 416.926,273.899 420.76,270.899 425,268.5C 427.724,267.313 430.557,266.647 433.5,266.5 Z"/></g>
<g><path style="opacity:1" fill="#fd7877" d="M 460.5,375.5 C 460.291,386.194 460.625,396.86 461.5,407.5C 460.71,406.391 460.21,405.058 460,403.5C 459.176,393.991 459.342,384.657 460.5,375.5 Z"/></g>
<g><path style="opacity:1" fill="#fe756d" d="M 421.5,371.5 C 423.126,377.928 423.793,384.595 423.5,391.5C 422.304,385.03 421.638,378.363 421.5,371.5 Z"/></g>
<g><path style="opacity:1" fill="#fefdfc" d="M 578.5,559.5 C 577.732,560.263 577.232,561.263 577,562.5C 576.501,566.821 576.334,571.154 576.5,575.5C 576.813,579.042 576.479,582.375 575.5,585.5C 572.45,586.077 570.45,584.91 569.5,582C 567.482,581.495 565.482,580.995 563.5,580.5C 558.735,578.618 554.068,576.452 549.5,574C 544.568,573.097 539.735,571.93 535,570.5C 533.957,543.803 532.457,517.136 530.5,490.5C 530.643,488.738 530.309,487.071 529.5,485.5C 531.242,483.437 532.909,481.437 534.5,479.5C 536.807,478.023 538.64,476.023 540,473.5C 550.889,455.389 559.889,436.389 567,416.5C 573.089,405.323 578.922,393.99 584.5,382.5C 586.003,381.443 587.67,380.776 589.5,380.5C 597.136,382.633 603.636,386.633 609,392.5C 621.319,408.774 625.986,427.107 623,447.5C 621.814,470.29 614.814,490.957 602,509.5C 595.315,522.274 588.649,534.94 582,547.5C 580.537,551.423 579.37,555.423 578.5,559.5 Z"/></g>
<g><path style="opacity:1" fill="#fdc4c3" d="M 473.5,331.5 C 472.589,354.151 472.256,376.818 472.5,399.5C 471.337,379.004 471.171,358.337 472,337.5C 472.191,335.292 472.691,333.292 473.5,331.5 Z"/></g>
<g><path style="opacity:1" fill="#fefcfb" d="M 513.5,469.5 C 512.536,462.254 512.203,454.92 512.5,447.5C 511.049,406.227 520.716,367.894 541.5,332.5C 543.765,331.353 546.098,331.186 548.5,332C 555.007,336.086 561.34,340.42 567.5,345C 572.862,350.383 575.862,356.883 576.5,364.5C 574.117,373.49 571.617,382.49 569,391.5C 560.773,405.956 553.107,420.623 546,435.5C 543.939,444.682 541.273,453.682 538,462.5C 533.534,471.817 526.368,475.317 516.5,473C 515.29,471.961 514.29,470.794 513.5,469.5 Z"/></g>
<g><path style="opacity:1" fill="#fefcfc" d="M 495.5,304.5 C 509.294,307.89 520.627,315.057 529.5,326C 524.958,333.618 520.792,341.451 517,349.5C 514.069,360.958 510.736,372.291 507,383.5C 505.187,391.044 504.021,398.711 503.5,406.5C 499.798,406.421 496.132,406.754 492.5,407.5C 487.371,410.642 482.038,413.309 476.5,415.5C 474.578,410.32 473.245,404.987 472.5,399.5C 472.256,376.818 472.589,354.151 473.5,331.5C 474.002,322.212 476.336,313.546 480.5,305.5C 485.438,304.608 490.438,304.274 495.5,304.5 Z"/></g>
<g><path style="opacity:1" fill="#feb0b4" d="M 495.5,304.5 C 490.438,304.274 485.438,304.608 480.5,305.5C 480.611,304.883 480.944,304.383 481.5,304C 486.352,303.185 491.019,303.352 495.5,304.5 Z"/></g>
<g><path style="opacity:1" fill="#fefcfb" d="M 460.5,375.5 C 459.342,384.657 459.176,393.991 460,403.5C 460.21,405.058 460.71,406.391 461.5,407.5C 462.887,409.877 463.721,412.543 464,415.5C 466.077,417.076 467.577,419.076 468.5,421.5C 456.076,428.738 443.742,436.238 431.5,444C 430.207,444.49 428.873,444.657 427.5,444.5C 427.037,426.762 425.704,409.096 423.5,391.5C 423.793,384.595 423.126,377.928 421.5,371.5C 418.366,350.896 415.7,330.23 413.5,309.5C 414.718,293.446 423.384,284.279 439.5,282C 452.006,280.316 461.34,284.816 467.5,295.5C 465.222,302.725 463.388,310.059 462,317.5C 460.8,336.815 460.3,356.148 460.5,375.5 Z"/></g>
<g><path style="opacity:1" fill="#2d8af9" d="M 764.5,385.5 C 766.776,391.155 767.776,397.155 767.5,403.5C 768.191,413.009 769.191,422.343 770.5,431.5C 769.312,508.489 740.646,572.489 684.5,623.5C 680.854,625.817 677.52,628.484 674.5,631.5C 665.456,637.564 656.456,643.564 647.5,649.5C 642.101,651.19 637.434,653.857 633.5,657.5C 631.245,658.087 629.579,659.42 628.5,661.5C 629.98,666.419 630.98,671.419 631.5,676.5C 629.833,676.5 628.167,676.5 626.5,676.5C 625.5,675.833 624.5,675.167 623.5,674.5C 618.78,673.148 614.113,671.481 609.5,669.5C 606.311,661.429 603.811,653.095 602,644.5C 598.127,638.021 595.627,631.021 594.5,623.5C 595.833,622.833 596.833,621.833 597.5,620.5C 599.14,617.851 600.807,615.184 602.5,612.5C 604.167,611.5 605.5,610.167 606.5,608.5C 611.454,616.679 615.454,625.345 618.5,634.5C 621.287,632.773 624.287,631.606 627.5,631C 691.892,596.443 731.726,543.276 747,471.5C 748.756,450.175 748.922,428.842 747.5,407.5C 753.159,400.173 758.825,392.84 764.5,385.5 Z"/></g>
<g><path style="opacity:1" fill="#7db3f6" d="M 767.5,403.5 C 769.987,412.532 770.987,421.865 770.5,431.5C 769.191,422.343 768.191,413.009 767.5,403.5 Z"/></g>
<g><path style="opacity:1" fill="#fefdfd" d="M 496.5,431.5 C 497.5,431.5 498.5,431.5 499.5,431.5C 499.171,445.01 499.504,458.344 500.5,471.5C 504.797,474.802 508.463,478.802 511.5,483.5C 512.765,484.479 514.099,485.479 515.5,486.5C 516.452,488.045 516.785,489.712 516.5,491.5C 515.575,504.804 515.242,518.137 515.5,531.5C 514.504,545.323 514.171,559.323 514.5,573.5C 511.369,572.908 509.036,573.908 507.5,576.5C 503.135,578.04 499.135,580.207 495.5,583C 492.621,583.546 489.954,584.379 487.5,585.5C 484.125,585.767 480.958,586.767 478,588.5C 476.004,586.339 473.838,584.339 471.5,582.5C 452.227,555.558 432.561,528.891 412.5,502.5C 405.527,492.467 404.86,482.134 410.5,471.5C 416.285,467.611 422.619,464.777 429.5,463C 441.087,456.889 452.754,451.056 464.5,445.5C 468.68,444.274 472.846,442.94 477,441.5C 478.03,441.164 478.53,440.497 478.5,439.5C 484.766,437.365 490.766,434.699 496.5,431.5 Z"/></g>
<g><path style="opacity:1" fill="#febeb9" d="M 478.5,439.5 C 478.53,440.497 478.03,441.164 477,441.5C 472.846,442.94 468.68,444.274 464.5,445.5C 468.809,442.943 473.476,440.943 478.5,439.5 Z"/></g>
<g><path style="opacity:1" fill="#fca59e" d="M 496.5,431.5 C 497.568,430.566 498.901,430.232 500.5,430.5C 500.5,444.167 500.5,457.833 500.5,471.5C 499.504,458.344 499.171,445.01 499.5,431.5C 498.5,431.5 497.5,431.5 496.5,431.5 Z"/></g>
<g><path style="opacity:1" fill="#fca3a8" d="M 512.5,447.5 C 512.203,454.92 512.536,462.254 513.5,469.5C 512.178,466.232 511.511,462.565 511.5,458.5C 511.501,454.651 511.835,450.984 512.5,447.5 Z"/></g>
<g><path style="opacity:1" fill="#fa776f" d="M 511.5,483.5 C 517.887,483.86 519.553,486.527 516.5,491.5C 516.785,489.712 516.452,488.045 515.5,486.5C 514.099,485.479 512.765,484.479 511.5,483.5 Z"/></g>
<g><path style="opacity:1" fill="#fda5a5" d="M 534.5,479.5 C 532.909,481.437 531.242,483.437 529.5,485.5C 530.309,487.071 530.643,488.738 530.5,490.5C 527.066,485.272 528.399,481.605 534.5,479.5 Z"/></g>
<g><path style="opacity:1" fill="#fdbd0d" d="M 305.5,341.5 C 306.045,343.593 306.878,345.593 308,347.5C 310.302,350.71 312.802,353.71 315.5,356.5C 316.864,358.191 318.197,359.858 319.5,361.5C 317.444,368.839 315.277,376.172 313,383.5C 311.667,391.5 310.333,399.5 309,407.5C 299.729,469.611 314.395,524.944 353,573.5C 374.326,600.329 400.492,620.996 431.5,635.5C 439.613,625.874 447.613,616.041 455.5,606C 440.951,582.103 426.784,557.937 413,533.5C 403.163,521.827 394.83,509.161 388,495.5C 387.505,493.527 387.338,491.527 387.5,489.5C 387.267,484.105 387.6,478.772 388.5,473.5C 390.285,466.741 393.951,461.408 399.5,457.5C 402.084,463.077 405.751,467.743 410.5,471.5C 404.86,482.134 405.527,492.467 412.5,502.5C 432.561,528.891 452.227,555.558 471.5,582.5C 473.838,584.339 476.004,586.339 478,588.5C 480.958,586.767 484.125,585.767 487.5,585.5C 487.34,587.199 487.506,588.866 488,590.5C 489.82,592.132 490.986,594.132 491.5,596.5C 485.489,602.674 478.989,608.341 472,613.5C 464.333,624.5 456.667,635.5 449,646.5C 447.667,650.5 446.333,654.5 445,658.5C 444.5,670.829 444.333,683.162 444.5,695.5C 438.187,699.469 431.854,703.469 425.5,707.5C 425.667,692.163 425.5,676.83 425,661.5C 424.812,657.91 423.312,655.076 420.5,653C 361.777,624.167 321.61,578.667 300,516.5C 280.697,462.133 280.697,407.799 300,353.5C 301.372,349.186 303.205,345.186 305.5,341.5 Z"/></g>
<g><path style="opacity:1" fill="#ffdd73" d="M 388.5,473.5 C 387.6,478.772 387.267,484.105 387.5,489.5C 386.35,484.684 386.184,479.684 387,474.5C 387.383,473.944 387.883,473.611 388.5,473.5 Z"/></g>
<g><path style="opacity:1" fill="#fec5c2" d="M 515.5,531.5 C 515.667,545.837 515.5,560.171 515,574.5C 512.564,575.355 510.064,576.021 507.5,576.5C 509.036,573.908 511.369,572.908 514.5,573.5C 514.171,559.323 514.504,545.323 515.5,531.5 Z"/></g>
<g><path style="opacity:1" fill="#f97772" d="M 578.5,559.5 C 578.048,564.998 577.381,570.331 576.5,575.5C 576.334,571.154 576.501,566.821 577,562.5C 577.232,561.263 577.732,560.263 578.5,559.5 Z"/></g>
<g><path style="opacity:1" fill="#ffc8c4" d="M 563.5,580.5 C 565.482,580.995 567.482,581.495 569.5,582C 570.45,584.91 572.45,586.077 575.5,585.5C 574.054,586.613 572.387,586.78 570.5,586C 567.734,584.629 565.401,582.796 563.5,580.5 Z"/></g>
<g><path style="opacity:1" fill="#fdfefd" d="M 567.5,599.5 C 571.311,600.645 575.311,600.812 579.5,600C 580.381,599.292 581.047,598.458 581.5,597.5C 581.56,596.957 581.893,596.624 582.5,596.5C 583.458,598.624 584.625,600.624 586,602.5C 588.512,608.676 590.512,615.009 592,621.5C 592.417,622.756 593.25,623.423 594.5,623.5C 595.627,631.021 598.127,638.021 602,644.5C 603.811,653.095 606.311,661.429 609.5,669.5C 609.927,673.824 610.261,678.158 610.5,682.5C 609.883,682.611 609.383,682.944 609,683.5C 608.833,689.5 608.667,695.5 608.5,701.5C 609.333,731.494 609.667,761.494 609.5,791.5C 608.833,834.167 608.167,876.833 607.5,919.5C 553.5,919.5 499.5,919.5 445.5,919.5C 445.5,890.167 445.5,860.833 445.5,831.5C 445.832,785.997 445.499,740.664 444.5,695.5C 444.333,683.162 444.5,670.829 445,658.5C 446.333,654.5 447.667,650.5 449,646.5C 456.667,635.5 464.333,624.5 472,613.5C 478.989,608.341 485.489,602.674 491.5,596.5C 497.275,594.894 502.608,592.394 507.5,589C 508.793,588.51 510.127,588.343 511.5,588.5C 511.821,599.985 511.821,611.651 511.5,623.5C 510.797,632.149 510.464,640.815 510.5,649.5C 509.337,675.33 509.17,701.33 510,727.5C 514.311,751.32 517.311,775.32 519,799.5C 519.738,803.11 520.905,806.443 522.5,809.5C 522.953,810.458 523.619,811.292 524.5,812C 527.367,812.801 530.034,812.634 532.5,811.5C 533.675,811.719 534.675,811.386 535.5,810.5C 536.875,808.624 538.042,806.624 539,804.5C 540.795,778.782 543.128,753.115 546,727.5C 546.5,711.494 546.333,695.494 545.5,679.5C 545.666,672.159 545.5,664.826 545,657.5C 544.722,656.584 544.222,655.918 543.5,655.5C 543.217,647.273 542.217,639.273 540.5,631.5C 539.999,616.128 538.999,600.795 537.5,585.5C 542.336,585.667 547.003,586.667 551.5,588.5C 556.528,592.63 561.862,596.297 567.5,599.5 Z"/></g>
<g><path style="opacity:1" fill="#fcc2bd" d="M 581.5,597.5 C 581.047,598.458 580.381,599.292 579.5,600C 575.311,600.812 571.311,600.645 567.5,599.5C 572.43,599.966 577.097,599.299 581.5,597.5 Z"/></g>
<g><path style="opacity:1" fill="#fe7f7b" d="M 511.5,588.5 C 511.56,587.957 511.893,587.624 512.5,587.5C 512.833,590.833 513.167,594.167 513.5,597.5C 512.917,606.159 512.584,614.826 512.5,623.5C 512.167,623.5 511.833,623.5 511.5,623.5C 511.821,611.651 511.821,599.985 511.5,588.5 Z"/></g>
<g><path style="opacity:1" fill="#ee5661" d="M 604.5,604.5 C 606.104,605.287 606.771,606.62 606.5,608.5C 605.5,610.167 604.167,611.5 602.5,612.5C 602.586,611.504 602.252,610.671 601.5,610C 602.448,609.517 603.448,609.351 604.5,609.5C 604.5,607.833 604.5,606.167 604.5,604.5 Z"/></g>
<g><path style="opacity:1" fill="#ab628a" d="M 597.5,620.5 C 596.833,621.833 595.833,622.833 594.5,623.5C 594.5,621.5 595.5,620.5 597.5,620.5 Z"/></g>
<g><path style="opacity:1" fill="#aed4fc" d="M 684.5,623.5 C 682.082,627.245 678.749,629.912 674.5,631.5C 677.52,628.484 680.854,625.817 684.5,623.5 Z"/></g>
<g><path style="opacity:1" fill="#f9bc0e" d="M 511.5,623.5 C 511.833,623.5 512.167,623.5 512.5,623.5C 515.167,627.01 517.667,630.676 520,634.5C 522.232,635.843 524.066,637.51 525.5,639.5C 520.709,643.068 515.709,646.402 510.5,649.5C 510.464,640.815 510.797,632.149 511.5,623.5 Z"/></g>
<g><path style="opacity:1" fill="#0dac52" d="M 540.5,631.5 C 542.217,639.273 543.217,647.273 543.5,655.5C 543.841,663.675 544.508,671.675 545.5,679.5C 546.333,695.494 546.5,711.494 546,727.5C 543.128,753.115 540.795,778.782 539,804.5C 538.042,806.624 536.875,808.624 535.5,810.5C 534.675,811.386 533.675,811.719 532.5,811.5C 528.885,811.845 525.552,811.178 522.5,809.5C 520.905,806.443 519.738,803.11 519,799.5C 517.311,775.32 514.311,751.32 510,727.5C 509.17,701.33 509.337,675.33 510.5,649.5C 515.709,646.402 520.709,643.068 525.5,639.5C 529.202,637.976 532.536,635.81 535.5,633C 537.025,631.991 538.692,631.491 540.5,631.5 Z"/></g>
<g><path style="opacity:1" fill="#bbd7fa" d="M 647.5,649.5 C 647.631,650.376 647.298,651.043 646.5,651.5C 642.01,653.534 637.677,655.534 633.5,657.5C 637.434,653.857 642.101,651.19 647.5,649.5 Z"/></g>
<g><path style="opacity:1" fill="#bde9ce" d="M 543.5,655.5 C 544.222,655.918 544.722,656.584 545,657.5C 545.5,664.826 545.666,672.159 545.5,679.5C 544.508,671.675 543.841,663.675 543.5,655.5 Z"/></g>
<g><path style="opacity:1" fill="#43b389" d="M 609.5,669.5 C 614.113,671.481 618.78,673.148 623.5,674.5C 619.519,673.979 615.519,673.646 611.5,673.5C 611.81,676.713 611.477,679.713 610.5,682.5C 610.261,678.158 609.927,673.824 609.5,669.5 Z"/></g>
<g><path style="opacity:1" fill="#0aac51" d="M 623.5,674.5 C 624.5,675.167 625.5,675.833 626.5,676.5C 627.287,678.104 628.62,678.771 630.5,678.5C 630.5,681.5 630.5,684.5 630.5,687.5C 629.561,764.67 629.061,842.004 629,919.5C 632.394,920.456 635.894,920.789 639.5,920.5C 639.5,927.167 639.5,933.833 639.5,940.5C 564.167,940.5 488.833,940.5 413.5,940.5C 413.5,933.833 413.5,927.167 413.5,920.5C 417.106,920.789 420.606,920.456 424,919.5C 424.762,848.835 425.262,778.168 425.5,707.5C 431.854,703.469 438.187,699.469 444.5,695.5C 445.499,740.664 445.832,785.997 445.5,831.5C 444.502,860.995 444.169,890.662 444.5,920.5C 498.998,921.665 553.665,921.832 608.5,921C 609.497,877.906 609.83,834.739 609.5,791.5C 609.667,761.494 609.333,731.494 608.5,701.5C 608.667,695.5 608.833,689.5 609,683.5C 609.383,682.944 609.883,682.611 610.5,682.5C 611.477,679.713 611.81,676.713 611.5,673.5C 615.519,673.646 619.519,673.979 623.5,674.5 Z"/></g>
<g><path style="opacity:1" fill="#8cd2b3" d="M 626.5,676.5 C 628.167,676.5 629.833,676.5 631.5,676.5C 631.815,680.371 631.482,684.038 630.5,687.5C 630.5,684.5 630.5,681.5 630.5,678.5C 628.62,678.771 627.287,678.104 626.5,676.5 Z"/></g>
<g><path style="opacity:1" fill="#93e2b7" d="M 522.5,809.5 C 525.552,811.178 528.885,811.845 532.5,811.5C 530.034,812.634 527.367,812.801 524.5,812C 523.619,811.292 522.953,810.458 522.5,809.5 Z"/></g>
<g><path style="opacity:1" fill="#0dad53" d="M 548.5,831.5 C 551.112,832.277 552.945,833.944 554,836.5C 554.733,841.885 554.567,847.218 553.5,852.5C 552.176,857.726 550.843,863.06 549.5,868.5C 546.92,873.031 544.42,877.698 542,882.5C 541.506,884.134 541.34,885.801 541.5,887.5C 540.326,888.514 539.66,889.847 539.5,891.5C 537.896,892.287 537.229,893.62 537.5,895.5C 535.833,895.5 534.167,895.5 532.5,895.5C 532.5,882.167 532.5,868.833 532.5,855.5C 536.895,852.624 538.728,848.624 538,843.5C 537.292,842.619 536.458,841.953 535.5,841.5C 534.666,840.252 533.333,839.585 531.5,839.5C 529.667,839.585 528.334,840.252 527.5,841.5C 525.863,842.974 524.863,844.808 524.5,847C 525.598,850.242 527.265,853.076 529.5,855.5C 530.148,869.209 529.481,882.542 527.5,895.5C 522.108,887.062 516.941,878.395 512,869.5C 511.505,867.527 511.338,865.527 511.5,863.5C 510.724,857.896 509.391,852.396 507.5,847C 508.719,837.082 509.553,837.249 510,847.5C 510.333,844.833 510.667,842.167 511,839.5C 511.853,837.875 512.853,837.542 514,838.5C 515.681,836.452 517.181,834.285 518.5,832C 517.833,831.667 517.167,831.333 516.5,831C 526.504,827.552 537.171,827.719 548.5,831.5 Z"/></g>
<g><path style="opacity:1" fill="#30b566" d="M 548.5,829.5 C 548.5,830.167 548.5,830.833 548.5,831.5C 537.171,827.719 526.504,827.552 516.5,831C 517.167,831.333 517.833,831.667 518.5,832C 517.181,834.285 515.681,836.452 514,838.5C 512.853,837.542 511.853,837.875 511,839.5C 510.667,842.167 510.333,844.833 510,847.5C 509.553,837.249 508.719,837.082 507.5,847C 509.391,852.396 510.724,857.896 511.5,863.5C 510.599,862.71 509.932,861.71 509.5,860.5C 506.9,853.113 505.9,845.447 506.5,837.5C 508.043,833.124 511.043,830.291 515.5,829C 526.588,826.889 537.588,827.056 548.5,829.5 Z"/></g>
<g><path style="opacity:1" fill="#9adcb7" d="M 548.5,829.5 C 551.886,830.261 554.053,832.261 555,835.5C 555.667,840.833 555.667,846.167 555,851.5C 554.617,852.056 554.117,852.389 553.5,852.5C 554.567,847.218 554.733,841.885 554,836.5C 552.945,833.944 551.112,832.277 548.5,831.5C 548.5,830.833 548.5,830.167 548.5,829.5 Z"/></g>
<g><path style="opacity:1" fill="#a7e3bd" d="M 535.5,841.5 C 532.833,841.5 530.167,841.5 527.5,841.5C 528.334,840.252 529.667,839.585 531.5,839.5C 533.333,839.585 534.666,840.252 535.5,841.5 Z"/></g>
<g><path style="opacity:1" fill="#f1f8f2" d="M 527.5,841.5 C 530.167,841.5 532.833,841.5 535.5,841.5C 536.458,841.953 537.292,842.619 538,843.5C 538.728,848.624 536.895,852.624 532.5,855.5C 531.67,865.992 531.17,876.659 531,887.5C 530.83,876.659 530.33,865.992 529.5,855.5C 527.265,853.076 525.598,850.242 524.5,847C 524.863,844.808 525.863,842.974 527.5,841.5 Z"/></g>
<g><path style="opacity:1" fill="#c6ebd2" d="M 506.5,837.5 C 505.9,845.447 506.9,853.113 509.5,860.5C 507.447,859.051 505.78,857.884 504.5,857C 505.113,850.356 505.779,843.856 506.5,837.5 Z"/></g>
<g><path style="opacity:1" fill="#d1efd8" d="M 549.5,868.5 C 549.119,876.027 546.452,882.36 541.5,887.5C 541.34,885.801 541.506,884.134 542,882.5C 544.42,877.698 546.92,873.031 549.5,868.5 Z"/></g>
<g><path style="opacity:1" fill="#bde9ce" d="M 529.5,855.5 C 530.33,865.992 530.83,876.659 531,887.5C 531.17,876.659 531.67,865.992 532.5,855.5C 532.5,868.833 532.5,882.167 532.5,895.5C 534.167,895.5 535.833,895.5 537.5,895.5C 537.229,893.62 537.896,892.287 539.5,891.5C 538.85,893.435 538.517,895.435 538.5,897.5C 535.231,897.077 532.064,897.077 529,897.5C 527.97,897.164 527.47,896.497 527.5,895.5C 529.481,882.542 530.148,869.209 529.5,855.5 Z"/></g>
<g><path style="opacity:1" fill="#d1edda" d="M 445.5,831.5 C 445.5,860.833 445.5,890.167 445.5,919.5C 499.5,919.5 553.5,919.5 607.5,919.5C 553.336,920.499 499.003,920.832 444.5,920.5C 444.169,890.662 444.502,860.995 445.5,831.5 Z"/></g>
<g><path style="opacity:1" fill="#42be79" d="M 609.5,791.5 C 609.83,834.739 609.497,877.906 608.5,921C 553.665,921.832 498.998,921.665 444.5,920.5C 499.003,920.832 553.336,920.499 607.5,919.5C 608.167,876.833 608.833,834.167 609.5,791.5 Z"/></g>
<g><path style="opacity:1" fill="#a6e0b8" d="M 413.5,920.5 C 413.5,927.167 413.5,933.833 413.5,940.5C 488.833,940.5 564.167,940.5 639.5,940.5C 564.002,941.499 488.335,941.833 412.5,941.5C 412.175,934.313 412.509,927.313 413.5,920.5 Z"/></g>
</svg>
